<?xml version="1.0" encoding="UTF-8"?><svg id="Layer_1" xmlns="http://www.w3.org/2000/svg" viewBox="0 0 104.46 133"><path d="M51.25,46.41s-.01,0-.02,0-.01,0-.02,0c-.37,9.2-6.86,16.81-15.51,18.9,8.8,2.12,15.36,9.97,15.52,19.37,0,0,.01,0,.02,0,.16-9.41,6.72-17.25,15.52-19.37-8.65-2.09-15.14-9.7-15.51-18.9Z"/><path d="M20.71,111.77c-4.82,0-8.76-1.4-11.55-4.19-10.54-10.54-.33-37.26,23.25-60.84,23.57-23.57,50.3-33.79,60.84-23.25,5.3,5.29,5.58,14.71.8,26.51-4.51,11.14-13.05,23.33-24.05,34.32-11,11-23.18,19.54-34.32,24.05-5.58,2.26-10.64,3.39-14.97,3.39ZM81.66,24.19c-10.79,0-28.4,8.59-45.81,25.99-23.09,23.09-30.66,46.55-23.25,53.97,3.77,3.77,11.52,3.67,21.26-.27,10.55-4.27,22.16-12.43,32.71-22.98,10.55-10.55,18.71-22.16,22.98-32.71,3.94-9.74,4.04-17.48.27-21.26-1.83-1.83-4.63-2.74-8.16-2.74Z"/><path d="M81.74,111.73c-13.05,0-32.03-10.1-49.32-27.39C8.84,60.76-1.37,34.04,9.17,23.5c5.29-5.3,14.71-5.58,26.51-.8,11.14,4.51,23.33,13.05,34.32,24.05,11,11,19.54,23.18,24.05,34.32,4.78,11.8,4.5,21.22-.8,26.51-2.81,2.81-6.77,4.14-11.51,4.14ZM20.74,24.18c-3.5,0-6.29.92-8.13,2.76-7.42,7.42.15,30.87,23.25,53.97,10.55,10.55,22.16,18.71,32.71,22.98,9.74,3.94,17.49,4.04,21.26.27,7.42-7.42-.15-30.87-23.25-53.97-10.55-10.55-22.16-18.71-32.71-22.98-4.98-2.02-9.45-3.03-13.12-3.03Z"/><path d="M51.21,125c-14.9,0-26.58-26.12-26.58-59.46,0-33.34,11.67-59.46,26.58-59.46h0c14.9,0,26.58,26.12,26.58,59.46,0,15.55-2.58,30.21-7.27,41.27-4.97,11.73-11.82,18.18-19.31,18.18ZM51.21,10.95c-10.49,0-21.72,21.94-21.72,54.6,0,32.66,11.23,54.6,21.72,54.6,5.33,0,10.74-5.55,14.84-15.22,4.44-10.48,6.88-24.46,6.88-39.38,0-32.66-11.23-54.6-21.72-54.6h0Z"/></svg>