<?xml version="1.0" encoding="UTF-8"?><svg id="Layer_1" xmlns="http://www.w3.org/2000/svg" viewBox="0 0 323.58 110.55"><defs><style>.cls-1{stroke:#ea9949;}.cls-1,.cls-2,.cls-3,.cls-4,.cls-5,.cls-6,.cls-7{fill:none;stroke-miterlimit:10;stroke-width:2px;}.cls-2{stroke:#a43e81;}.cls-3{stroke:#fbb03b;}.cls-4{stroke:#d88257;}.cls-8{fill:#fff;}.cls-5{stroke:#93278f;}.cls-6{stroke:#b65573;}.cls-7{stroke:#c76c65;}</style></defs><path class="cls-8" d="M145.11,40.43h14.47l-17.8,41.98h-11.6l-17.8-41.98h14.47l9.17,24.99,9.08-24.99Z"/><path class="cls-8" d="M163.54,26.41c0-4.41,3.78-7.73,8.27-7.73s8.09,3.33,8.09,7.73-3.6,7.73-8.09,7.73-8.27-3.51-8.27-7.73ZM165.16,82.42v-41.98h13.31v41.98h-13.31Z"/><path class="cls-8" d="M231.6,59.85v22.57h-13.31v-21.76c0-6.47-3.96-8.99-7.28-8.99-3.6,0-8.09,1.89-8.09,8.9v21.85h-13.31v-41.98h13.31v7.28c1.62-5.75,8.18-8.36,12.05-8.36,11.15,0,16.63,7.64,16.63,20.5Z"/><path class="cls-8" d="M267.83,40.43h14.29l-25.89,62.66h-14.2l10.34-25.71-16.54-36.95h14.74l8.72,21.76,8.54-21.76Z"/><path class="cls-8" d="M287.61,82.42V17.6h13.31v64.82h-13.31Z"/><circle class="cls-5" cx="56.59" cy="55.13" r="13.48"/><circle class="cls-2" cx="56.59" cy="55.16" r="18.88"/><circle class="cls-6" cx="56.59" cy="55.18" r="24.29"/><circle class="cls-7" cx="56.59" cy="55.2" r="29.69"/><circle class="cls-4" cx="56.59" cy="55.23" r="35.1"/><circle class="cls-1" cx="56.59" cy="55.25" r="40.5"/><circle class="cls-3" cx="56.59" cy="55.28" r="45.91"/></svg>